HIERARCHY
ROOT root
{
	OFFSET	0.000000	0.000000	0.000000
	CHANNELS 6 Xposition Yposition Zposition Zrotation Yrotation Xrotation
	JOINT lhipjoint
	{
		OFFSET	0.000000	0.000000	0.000000
		CHANNELS 3 Zrotation Yrotation Xrotation
		JOINT lfemur
		{
			OFFSET	1.363056	-1.794627	0.839290
			CHANNELS 3 Zrotation Yrotation Xrotation
			JOINT ltibia
			{
				OFFSET	2.448110	-6.726133	0.000000
				CHANNELS 3 Zrotation Yrotation Xrotation
				JOINT lfoot
				{
					OFFSET	2.562198	-7.039586	0.000000
					CHANNELS 3 Zrotation Yrotation Xrotation
					JOINT ltoes
					{
						OFFSET	0.157638	-0.433106	2.322550
						CHANNELS 3 Zrotation Yrotation Xrotation
						End Site
						{
							OFFSET	0.000000	-0.000000	1.189660
						}
					}
				}
			}
		}
	}
	JOINT rhipjoint
	{
		OFFSET	0.000000	0.000000	0.000000
		CHANNELS 3 Zrotation Yrotation Xrotation
		JOINT rfemur
		{
			OFFSET	-1.305517	-1.794627	0.839289
			CHANNELS 3 Zrotation Yrotation Xrotation
			JOINT rtibia
			{
				OFFSET	-2.542528	-6.985544	0.000000
				CHANNELS 3 Zrotation Yrotation Xrotation
				JOINT rfoot
				{
					OFFSET	-2.568255	-7.056228	0.000000
					CHANNELS 3 Zrotation Yrotation Xrotation
					JOINT rtoes
					{
						OFFSET	-0.164728	-0.452588	2.363148
						CHANNELS 3 Zrotation Yrotation Xrotation
						End Site
						{
							OFFSET	-0.000000	-0.000000	1.210820
						}
					}
				}
			}
		}
	}
	JOINT lowerback
	{
		OFFSET	0.000000	0.000000	0.000000
		CHANNELS 3 Zrotation Yrotation Xrotation
		JOINT upperback
		{
			OFFSET	0.028267	2.035590	-0.193378
			CHANNELS 3 Zrotation Yrotation Xrotation
			JOINT thorax
			{
				OFFSET	0.056717	2.048850	-0.042750
				CHANNELS 3 Zrotation Yrotation Xrotation
				JOINT lowerneck
				{
					OFFSET	0.040847	2.063911	0.048282
					CHANNELS 3 Zrotation Yrotation Xrotation
					JOINT upperneck
					{
						OFFSET	-0.054165	1.746242	0.172020
						CHANNELS 3 Zrotation Yrotation Xrotation
						JOINT head
						{
							OFFSET	0.104075	1.761358	-0.123974
							CHANNELS 3 Zrotation Yrotation Xrotation
							End Site
							{
								OFFSET	0.037205	1.770440	-0.062412
							}
						}
					}
				}
				JOINT lclavicle
				{
					OFFSET	0.040847	2.063911	0.048282
					CHANNELS 3 Zrotation Yrotation Xrotation
					JOINT lhumerus
					{
						OFFSET	3.362408	1.200889	-0.311209
						CHANNELS 3 Zrotation Yrotation Xrotation
						JOINT lradius
						{
							OFFSET	4.983000	-0.000000	-0.000000
							CHANNELS 3 Zrotation Yrotation Xrotation
							JOINT lwrist
							{
								OFFSET	3.483560	-0.000000	-0.000000
								CHANNELS 3 Zrotation Yrotation Xrotation
								JOINT lhand
								{
									OFFSET	1.741780	-0.000000	-0.000000
									CHANNELS 3 Zrotation Yrotation Xrotation
									JOINT lfingers
									{
										OFFSET	0.715259	-0.000000	-0.000000
										CHANNELS 3 Zrotation Yrotation Xrotation
										End Site
										{
											OFFSET	0.576661	-0.000000	-0.000000
										}
									}
								}
								JOINT lthumb
								{
									OFFSET	1.741780	-0.000000	-0.000000
									CHANNELS 3 Zrotation Yrotation Xrotation
									End Site
									{
										OFFSET	0.585465	-0.000000	0.585465
									}
								}
							}
						}
					}
				}
				JOINT rclavicle
				{
					OFFSET	0.040847	2.063911	0.048282
					CHANNELS 3 Zrotation Yrotation Xrotation
					JOINT rhumerus
					{
						OFFSET	-3.136600	1.374051	-0.404645
						CHANNELS 3 Zrotation Yrotation Xrotation
						JOINT rradius
						{
							OFFSET	-5.241900	-0.000000	-0.000000
							CHANNELS 3 Zrotation Yrotation Xrotation
							JOINT rwrist
							{
								OFFSET	-3.444170	-0.000000	-0.000000
								CHANNELS 3 Zrotation Yrotation Xrotation
								JOINT rhand
								{
									OFFSET	-1.722090	-0.000000	-0.000000
									CHANNELS 3 Zrotation Yrotation Xrotation
									JOINT rfingers
									{
										OFFSET	-0.622529	-0.000000	-0.000000
										CHANNELS 3 Zrotation Yrotation Xrotation
										End Site
										{
											OFFSET	-0.501899	-0.000000	-0.000000
										}
									}
								}
								JOINT rthumb
								{
									OFFSET	-1.722090	-0.000000	-0.000000
									CHANNELS 3 Zrotation Yrotation Xrotation
									End Site
									{
										OFFSET	-0.509562	-0.000000	0.509562
									}
								}
							}
						}
					}
				}
			}
		}
	}
}
MOTION
Frames:	9
Frame Time:	0.008333
	-7.414500	17.680401	24.019501	-172.035004	-50.740799	175.080002	0.000000	0.000000	0.000000	-11.876648	-3.889996	-10.346234	2.489006	9.817890	28.388994	0.092704	-17.372740	-13.080566	0.000647	0.164269	0.451335	0.000000	0.000000	0.000000	27.419149	1.665972	-9.391661	-2.474094	-9.790648	28.301413	-0.838414	-3.944177	-19.160683	-0.723932	-5.436685	15.158374	5.758500	2.666070	7.301580	2.879080	3.788390	2.838390	-0.544853	1.823100	-0.962548	0.087750	7.340389	-6.362960	-1.990930	9.962861	6.659501	-0.170480	4.853790	3.378870	0.087750	-0.000000	-0.000000	-85.781525	-1.135611	19.349970	16.251167	-25.860018	-3.754848	0.000000	0.000000	4.093157	10.854924	-8.477810	-1.619298	-7.125019	0.000000	0.000000	-11.543724	21.415205	6.665596	0.087750	-0.000000	-0.000000	81.343918	1.678146	0.808975	-13.334398	21.775213	-2.576013	-0.000000	0.000002	-8.269866	-20.774952	-22.962240	8.418619	7.125019	0.000000	0.000000	8.757376	-54.145473	-1.980060
	-7.413810	17.666800	23.996700	-172.052002	-50.652996	175.037003	0.000000	0.000000	0.000000	-12.169390	-4.145362	-10.103775	2.491831	9.823035	28.405550	0.283001	-15.783836	-13.859871	0.000013	-0.022889	-0.062886	0.000000	0.000000	0.000000	27.399300	0.863837	-9.632819	-2.491088	-9.821680	28.401192	-0.857305	-3.179958	-18.918381	-0.681221	-5.277197	14.700890	5.712430	2.703590	7.268002	2.855720	3.836870	2.810070	-0.546093	1.847870	-0.972614	0.069652	7.304170	-6.364490	-1.832780	9.905991	6.783360	-0.117017	4.829761	3.410811	0.069652	0.000000	0.000000	-85.911247	-1.025854	18.524855	15.738262	-25.164469	-3.533929	0.000000	0.000000	4.601037	10.592052	-8.689458	-1.618292	-7.125019	0.000000	0.000000	-11.718725	21.213720	6.825641	0.069652	0.000000	0.000000	81.373085	1.676943	0.493242	-13.373609	21.832174	-2.590580	0.000000	-0.000002	-8.454506	-21.567171	-22.482243	8.595107	7.125019	0.000000	0.000000	7.764820	-53.802689	-1.688336
	-7.412020	17.663200	23.974001	-171.261993	-50.392494	174.315002	0.000000	0.000000	0.000000	-11.793584	-4.427555	-9.778970	2.504194	9.845530	28.477943	0.528556	-13.604849	-15.044754	0.025315	-1.027131	-2.823468	0.000000	0.000000	0.000000	28.192266	1.769608	-8.967485	-2.450585	-9.747499	28.162863	-0.839138	-3.976051	-19.186634	-0.702381	-5.356850	14.929223	6.077371	2.765280	7.289881	3.080420	3.935190	2.807260	-0.523799	1.891231	-0.971770	-0.045290	7.224140	-6.258181	-1.701490	9.798810	6.859891	-0.064684	4.778500	3.401340	-0.045290	-0.000000	0.000000	-86.223701	-0.951938	17.485394	15.228335	-24.463242	-3.319925	0.000000	0.000000	5.139107	10.240851	-8.937480	-1.607728	-7.125019	0.000000	0.000000	-11.953936	20.979622	7.033504	-0.045290	-0.000000	0.000000	81.200821	1.656197	0.584906	-13.469270	21.970913	-2.626261	-0.000000	0.000002	-8.945858	-22.416735	-22.312872	8.901131	7.125019	0.000000	0.000000	6.833038	-53.789261	-1.481926
	-7.412020	17.666901	23.952801	-170.671005	-50.049595	173.751999	0.000000	0.000000	0.000000	-11.516720	-5.178185	-9.102847	2.493614	9.826283	28.415997	0.717471	-11.420545	-15.997743	0.068247	-1.685442	-4.637108	0.000000	0.000000	0.000000	28.771271	2.188550	-8.586843	-2.440130	-9.728226	28.101048	-0.833492	-4.242535	-19.289495	-0.731679	-5.465069	15.239920	6.315971	2.858690	7.297812	3.274870	4.066260	2.816689	-0.463875	1.951670	-0.955460	-0.051110	7.125420	-5.938920	-1.713710	9.660730	6.683480	-0.092628	4.714600	3.278220	-0.051110	0.000000	0.000000	-86.348969	-0.590303	17.459227	14.978154	-24.115669	-3.217012	0.000000	0.000000	4.701834	10.393763	-8.799262	-1.607219	-7.125019	0.000000	0.000000	-11.853539	21.111515	6.935649	-0.051110	0.000000	0.000000	81.050247	1.601473	0.431222	-13.533788	22.064304	-2.650450	0.000000	0.000000	-8.428194	-20.796019	-22.722198	8.345597	7.125019	0.000000	0.000000	8.643091	-53.903061	-1.902648
	-7.419300	17.673201	23.942499	-171.455002	-49.998299	174.544006	0.000000	0.000000	0.000000	-12.295043	-6.311014	-8.602484	2.474637	9.791641	28.304604	0.827296	-9.778535	-16.604202	0.070409	-1.711890	-4.710080	0.000000	0.000000	0.000000	28.180819	1.998593	-8.779510	-2.422213	-9.695083	27.994846	-0.828098	-3.986694	-19.082653	-0.767461	-5.594145	15.611257	5.793331	2.846890	6.984931	3.170950	4.007110	2.765410	-0.264442	1.928820	-0.869884	0.147172	7.107050	-5.593110	-1.946130	9.628740	6.474950	-0.219813	4.700250	3.165310	0.147172	-0.000000	0.000000	-86.389954	0.010682	17.879988	14.970715	-24.105293	-3.213970	0.000000	0.000000	3.811217	10.592463	-8.216563	-1.530946	-7.125019	0.000000	0.000000	-11.747478	21.684273	6.714826	0.147172	-0.000000	0.000000	80.935707	1.634454	0.253960	-13.506668	22.025063	-2.640272	0.000000	-0.000002	-7.736089	-18.555229	-22.752350	7.396714	7.125019	0.000000	0.000000	10.927092	-53.512955	-2.309142
	-7.424940	17.675200	23.931700	-171.871002	-49.976101	175.042007	0.000000	0.000000	0.000000	-12.695749	-6.968621	-8.340416	2.445835	9.738752	28.134806	0.874827	-8.809361	-16.876982	0.095643	-1.994461	-5.490351	0.000000	0.000000	0.000000	27.885500	1.971272	-8.925408	-2.412791	-9.677589	27.938850	-0.829374	-3.865171	-19.023998	-0.783683	-5.651603	15.776824	5.444540	2.782750	6.666709	3.182500	3.884861	2.726960	-0.037051	1.871490	-0.764641	0.104974	7.165060	-5.509140	-2.040130	9.715461	6.473380	-0.242166	4.738811	3.153140	0.104974	0.000000	0.000000	-86.644714	0.325392	17.516142	14.762960	-23.814846	-3.129600	0.000000	0.000000	3.491255	10.716476	-7.771680	-1.465961	-7.125019	0.000000	0.000000	-11.687006	22.123240	6.559383	0.104974	0.000000	0.000000	80.713135	1.682226	0.936176	-13.664067	22.252432	-2.699588	-0.000000	0.000002	-8.404394	-17.876043	-23.881477	7.439301	7.125019	0.000000	0.000000	12.102649	-54.519333	-2.862172
	-7.423940	17.675200	23.916599	-171.703995	-49.831509	174.882996	0.000000	0.000000	0.000000	-12.532763	-7.054138	-8.087789	2.407952	9.668586	27.910038	0.880687	-8.353849	-16.873184	0.131598	-2.338273	-6.441484	0.000000	0.000000	0.000000	28.103409	2.251054	-8.737171	-2.412224	-9.676533	27.935465	-0.839400	-3.920402	-19.156584	-0.784972	-5.656146	15.789917	5.492480	2.806460	6.665680	3.221990	3.921260	2.689290	-0.026366	1.888040	-0.800966	0.218406	7.161291	-5.547810	-2.090869	9.707879	6.616220	-0.272183	4.732990	3.219230	0.218406	-0.000000	-0.000000	-86.752037	0.388329	16.694059	14.302896	-23.166075	-2.946218	0.000000	0.000000	4.103115	10.505305	-7.583342	-1.401836	-7.125019	0.000000	0.000000	-11.851624	22.316988	6.602156	0.218406	-0.000000	-0.000000	80.660942	1.672399	1.231912	-13.885332	22.570541	-2.783942	-0.000000	0.000002	-8.456428	-17.526501	-25.317898	7.691371	7.125019	0.000000	0.000000	13.149283	-55.880348	-3.554051
	-7.421880	17.682800	23.895901	-171.934998	-49.652802	175.042007	0.000000	0.000000	0.000000	-12.574215	-6.782297	-8.009555	2.379175	9.614835	27.738234	0.852910	-8.566513	-16.644510	0.106522	-2.104515	-5.794584	0.000000	0.000000	0.000000	28.067148	2.674169	-8.477562	-2.406684	-9.666227	27.902493	-0.844656	-4.080474	-19.303190	-0.798855	-5.704772	15.930181	5.254170	2.898900	6.604431	3.124080	4.032160	2.679400	0.000090	1.946390	-0.783510	0.530976	7.108430	-5.872920	-2.132380	9.624529	7.030680	-0.317846	4.688640	3.444580	0.530976	-0.000000	0.000000	-86.676018	0.377479	15.782998	13.804364	-22.454338	-2.752947	0.000000	0.000000	5.080654	9.599470	-7.650310	-1.289823	-7.125019	0.000000	0.000000	-12.498605	22.275856	6.991574	0.530976	-0.000000	0.000000	80.817337	1.730550	0.923715	-13.940369	22.649397	-2.805104	0.000000	0.000000	-8.007159	-17.208969	-25.440973	7.578763	7.125019	0.000000	0.000000	13.539058	-55.937748	-3.681141
	-7.419730	17.691299	23.867701	-172.184998	-49.535099	175.251007	0.000000	0.000000	0.000000	-12.578767	-6.175041	-8.138552	2.350216	9.560334	27.564363	0.809434	-9.134645	-16.327230	0.093304	-1.969997	-5.422755	0.000000	0.000000	0.000000	28.032030	3.019632	-8.280782	-2.406866	-9.666561	27.903563	-0.843455	-4.359900	-19.459490	-0.781593	-5.644229	15.755573	4.911660	2.976780	6.385080	3.042820	4.104510	2.709110	0.113933	1.987670	-0.648089	0.551615	7.074541	-6.164091	-1.938840	9.568361	7.286952	-0.244318	4.663431	3.578870	0.551615	-0.000000	0.000000	-86.607841	0.331066	14.807206	13.360965	-21.813805	-2.585876	0.000000	0.000000	6.005665	8.610826	-7.839551	-1.183272	-7.125019	0.000000	0.000000	-13.193153	22.115086	7.450399	0.551615	-0.000000	0.000000	81.055847	1.727921	0.860081	-13.962741	22.681412	-2.813729	-0.000000	0.000002	-8.351689	-17.821295	-24.303076	7.536871	7.125019	0.000000	0.000000	12.352850	-54.929928	-3.047002
